# xmcd
#
# Track frame offsets:
#	150
#	17863
#	36066
#	54667
#	72773
#	92414
#	107871
#	127235
#	145022
#	161489
#	179202
#	197405
#	216006
#	234112
#	253753
#	269210
#	288574
#	306361
#
# Disc length: 4304
#
# Revision: 3
# Processed by: cddbd v1.5.2PL0 Copyright (c) Steve Scherf et al.
# Submitted via: kJams 2 (development) 2.0patch35
#
DISCID=1210ce12
DTITLE=Various Artist - Pop Hits Monthly 0312c
DYEAR=2003
DGENRE=karaoke
TTITLE0=Various Artist - Perfect – Sara Evans
TTITLE1=Various Artist - In My Dreams – Rick Trevino
TTITLE2=Various Artist - Run, Run, Run – Ryan Tyler
TTITLE3=Various Artist - Heaven Help Me – Wyonna
TTITLE4=Rodney Atkins - Honesty (Write Me A List)
TTITLE5=Various Artist - I Cant Be Your Friend – Rushlow
TTITLE6=Josh Turner - Long Black Train
TTITLE7=Various Artist - Little Moments – Brad Paisley
TTITLE8=Various Artist - Rainbow Man – Jeff Bates
TTITLE9=Various Artist - Perfect – Sara Evans (vocal)
TTITLE10=Various Artist - In My Dreams – Rick Trevino (vocal)
TTITLE11=Various Artist - Run, Run, Run – Ryan Tyler (vocal)
TTITLE12=Various Artist - Heaven Help Me – Wyonna (vocal)
TTITLE13=Various Artist - Honesty – Rodney Atkins (vocal)
TTITLE14=Various Artist - I Can't Be Your Friend – Rushlow (vocal)
TTITLE15=Various Artist - Long Black Train – Josh Turner (vocal)
TTITLE16=Various Artist - Little Moments – Brad Paisley (vocal)
TTITLE17=Various Artist - Rainbow Man – Jeff Bates (vocal)
EXTD=
EXTT0=
EXTT1=
EXTT2=
EXTT3=
EXTT4=
EXTT5=
EXTT6=
EXTT7=
EXTT8=
EXTT9=
EXTT10=
EXTT11=
EXTT12=
EXTT13=
EXTT14=
EXTT15=
EXTT16=
EXTT17=
PLAYORDER=
